<svg width="25" height="37" viewBox="0 0 25 37" fill="none" xmlns="http://www.w3.org/2000/svg">
<path d="M15.1005 24.5052L14.9893 24.4458L5.42378 23.7222L4.65751 33.1204C4.63009 33.4418 4.73825 33.7465 4.93325 33.9765C5.12825 34.2066 5.4101 34.3635 5.73154 34.3894C6.021 34.4122 6.26779 34.3193 6.46584 34.1517C6.72482 33.9324 6.91675 33.5896 7.02494 33.2042L9.05871 26.0122C9.12879 25.7638 9.35883 25.5825 9.62998 25.5871C9.86764 25.5902 10.0946 25.61 10.3064 25.642C11.2174 25.7806 12.0508 26.1782 12.6555 26.8044C13.271 27.4412 13.6443 28.305 13.629 29.3683C13.626 29.577 13.6092 29.7842 13.5803 29.9853L13.2878 33.541C13.2603 33.8701 13.3731 34.193 13.5742 34.4414C13.7707 34.6821 14.0525 34.8512 14.3694 34.8771C14.6756 34.9014 14.9727 34.7674 15.2012 34.548C15.4434 34.3149 15.6095 33.9919 15.64 33.6583C15.7131 32.6757 16.0041 27.6102 16.1853 27.0634C16.3666 25.1637 15.7999 24.8682 15.1022 24.5041L15.1005 24.5052ZM20.972 12.6469C21.007 12.3269 21.2965 12.0954 21.6164 12.1304C21.9363 12.1655 22.1679 12.4549 22.1328 12.7748L21.8175 15.5445L22.2486 15.5795C23.2617 15.6633 23.8574 16.3275 24.0737 17.1288C24.1514 17.4198 24.1773 17.7291 24.1529 18.0307C24.1285 18.3308 24.0508 18.6325 23.9244 18.9082C23.5786 19.6638 22.8823 20.2184 21.8723 20.1346L21.3026 20.0873L19.5963 35.1328C19.5613 35.4527 19.2718 35.6843 18.9519 35.6492C18.632 35.6142 18.4004 35.3247 18.4355 35.0048L20.1372 19.9914L16.082 19.6562L15.762 23.5318C16.7858 24.0681 17.5886 24.5891 17.3449 27.1652L16.801 33.771C16.7416 34.385 16.443 34.97 16.0089 35.3889C15.5549 35.8246 14.9501 36.0897 14.2981 36.044L14.2478 36.0394C13.611 35.98 13.0519 35.6494 12.6664 35.1757C12.281 34.7019 12.0662 34.0803 12.118 33.4435L12.4181 29.8239C12.4456 29.6487 12.4593 29.4917 12.4608 29.3531C12.4715 28.6234 12.2216 28.0369 11.8118 27.6119C11.3913 27.1777 10.7957 26.8989 10.1299 26.7968L10.0507 26.7846L8.14794 33.5168C7.97884 34.1171 7.66196 34.6655 7.21865 35.0402C6.79971 35.3967 6.27563 35.5978 5.66625 35.5552L5.60684 35.5506C4.97613 35.4897 4.42311 35.1804 4.04076 34.7294C3.65685 34.277 3.44359 33.6798 3.48926 33.0476L4.30428 23.0523L4.44444 21.3003L3.57758 21.1815C2.73511 21.0672 2.0374 20.6132 1.5575 19.9795C1.06848 19.3305 0.801876 18.4896 0.8415 17.6364L1.06545 12.6593C1.07002 12.5374 1.0822 12.4292 1.09591 12.3333C1.19494 11.701 1.48591 11.1907 1.90181 10.8418C2.32379 10.4869 2.86616 10.3025 3.45877 10.3284C4.3195 10.4061 5.20616 10.5798 6.06537 10.7123C6.34416 10.3162 6.67171 9.95822 7.03885 9.64743C7.69546 9.09137 8.4785 8.6846 9.33162 8.47591C9.22803 8.3906 9.13053 8.30071 9.03608 8.20626C8.2652 7.43539 7.78839 6.37205 7.78839 5.19901C7.78839 4.02597 8.26524 2.96411 9.03303 2.1948C9.80391 1.42393 10.8672 0.947113 12.0403 0.947113C13.2118 0.947113 14.2737 1.42397 15.0445 2.19328L15.0475 2.19633C15.8154 2.9672 16.2922 4.02902 16.2922 5.19902C16.2922 6.37054 15.8153 7.43239 15.046 8.20322L15.043 8.20627C14.6713 8.57647 14.231 8.88117 13.7435 9.09442C14.2996 9.41891 14.7947 9.83479 15.206 10.3208C16.1322 11.4146 16.6441 12.8603 16.5177 14.3928L16.4598 15.0981L20.6554 15.4439L20.9738 12.6423L20.972 12.6469ZM5.47103 11.8029C4.78853 11.6871 4.06033 11.5485 3.40829 11.4967C3.11274 11.4845 2.84918 11.5683 2.65266 11.7343C2.45004 11.9049 2.30379 12.17 2.25201 12.5098L2.23221 12.7124L2.00826 17.6896C1.98236 18.273 2.1606 18.8428 2.48968 19.2785C2.79284 19.6746 3.22245 19.9579 3.73432 20.028L4.54022 20.1377L5.07647 13.4543C5.1237 12.8723 5.26081 12.3178 5.47103 11.8044V11.8029ZM6.24191 13.5472L5.51826 22.5582L14.6131 23.2452L14.9178 19.56L13.5634 19.4488C12.7484 19.3818 12.0293 18.9964 11.5189 18.4266C11.0071 17.8538 10.7085 17.0936 10.7329 16.2801C10.742 15.9586 11.0101 15.7042 11.3316 15.7134C11.653 15.7225 11.9075 15.9906 11.8983 16.3121C11.8831 16.8194 12.0704 17.2932 12.3888 17.6497C12.7042 18.0016 13.1521 18.2408 13.6609 18.2834L21.9714 18.9705C22.4086 19.0071 22.7133 18.7603 22.8672 18.4251C22.9342 18.2774 22.9769 18.1098 22.9906 17.9361C23.0043 17.764 22.9906 17.5903 22.9479 17.4318C22.852 17.0769 22.593 16.7828 22.1558 16.7463L15.7832 16.2207C15.4617 16.1948 15.2225 15.9114 15.2484 15.59L15.3551 14.3027C15.4556 13.09 15.0504 11.9459 14.3176 11.0821C13.5848 10.2168 12.523 9.63027 11.3104 9.52973L11.0163 9.50536C9.80367 9.40481 8.65956 9.81004 7.79579 10.5428C6.93046 11.2756 6.34394 12.3359 6.24492 13.5486L6.24191 13.5472ZM14.2186 3.0219C13.6625 2.46432 12.8917 2.12003 12.0386 2.12003C11.187 2.12003 10.4146 2.46432 9.85853 3.0219C9.30095 3.57949 8.95666 4.35032 8.95666 5.20192C8.95666 6.05353 9.30096 6.82592 9.85853 7.38195C10.4161 7.93953 11.187 8.28382 12.0386 8.28382C12.8917 8.28382 13.6626 7.93953 14.2171 7.38347C14.7746 6.82588 15.1205 6.05349 15.1205 5.20189C15.1205 4.34876 14.7762 3.57793 14.2186 3.0219Z" fill="black"/>
</svg>
