<svg width="25" height="33" viewBox="0 0 25 33" fill="none" xmlns="http://www.w3.org/2000/svg">
<path d="M9.09637 0.315376C9.04867 0.315376 9.00098 0.321158 8.95328 0.329829V0.328384C8.57318 0.393423 8.26098 0.685375 8.10487 1.06694C8.06585 1.16522 8.02538 1.26639 7.98636 1.36468C7.6655 2.18563 7.38655 3.02535 7.1553 3.87664C7.07581 3.69309 6.88069 3.58758 6.68414 3.62082L4.28059 4.04573C4.045 4.0862 3.88746 4.31022 3.92793 4.54582L4.88764 9.95411L3.78774 6.84526C3.7068 6.61979 3.45821 6.50272 3.23274 6.58366L0.931783 7.39592C0.722212 7.47108 0.602254 7.69221 0.65573 7.90756L1.52871 11.239L1.51859 11.2376C1.41164 11.2058 1.29601 11.2376 1.22085 11.3199C1.14714 11.4023 1.12691 11.5208 1.16883 11.6249C1.3784 12.112 1.627 12.693 1.86113 13.2408C1.86402 13.2494 1.86691 13.2581 1.87125 13.2653C2.31495 14.3031 2.78615 15.4059 3.28909 16.5852C4.33116 19.035 5.44404 21.6627 6.47024 24.0907C6.50059 24.1615 6.55696 24.2179 6.62778 24.2468C6.6986 24.2757 6.77954 24.2757 6.85036 24.2453C6.92118 24.2164 6.97754 24.1601 7.00645 24.0892C7.0368 24.0184 7.0368 23.9389 7.00645 23.8681C6.424 22.4907 5.88924 21.2492 5.27641 19.804L8.48212 18.3602C8.49802 18.3544 8.51392 18.3472 8.52837 18.3399L12.2528 16.6619C12.26 16.659 12.2672 16.6547 12.2759 16.6518L18.3317 13.9216L18.3389 13.923V13.9202L21.2744 12.5977L21.3235 12.6223L21.3553 12.5601L22.5188 12.0369L20.7989 14.8177C20.7584 14.8827 20.7468 14.9608 20.7642 15.0359C20.7815 15.1111 20.8292 15.1747 20.8942 15.2151C21.0301 15.2975 21.2079 15.2556 21.2917 15.1198L23.5088 11.5354C23.5767 11.427 23.5666 11.2868 23.4814 11.1914C23.3975 11.096 23.2602 11.0657 23.1446 11.1191L21.7802 11.7334L24.3066 6.82942C24.4165 6.61696 24.3341 6.35538 24.1216 6.24552L21.9522 5.1312C21.8481 5.07627 21.7267 5.0676 21.6154 5.10373C21.5042 5.14131 21.4117 5.22225 21.3611 5.32776L18.573 11.099L19.1194 4.49526C19.1295 4.37963 19.0919 4.26546 19.0182 4.17729C18.9431 4.08912 18.8361 4.0342 18.7205 4.02553L16.288 3.82463C16.1738 3.81596 16.0597 3.85209 15.9729 3.92725C15.8848 4.0024 15.8313 4.10791 15.8212 4.22209L15.6723 6.02007L14.7199 5.86108C14.4987 5.82495 14.2877 5.96226 14.2299 6.17761L13.9943 7.0766C13.9264 6.94796 13.7963 6.86269 13.6503 6.84968L11.5171 6.67336C11.4723 6.25133 11.478 5.82206 11.5359 5.40004C11.7093 4.12961 11.6226 2.44581 10.6311 1.39368L10.0009 0.727382C9.75525 0.465781 9.42878 0.306718 9.09637 0.315376ZM9.12094 1.17822C9.17153 1.17822 9.25102 1.1999 9.3652 1.3213L9.99535 1.98904C10.6616 2.69726 10.8264 4.17289 10.6746 5.28145C10.5619 6.10385 10.6168 6.95366 10.8495 7.75583C11.2369 9.0913 12.0361 10.1782 12.5882 11.2896C13.1591 12.4415 13.5204 13.6845 13.7314 14.9708L7.35634 13.0226C6.84759 9.22857 7.3867 5.26106 8.79298 1.67687C8.83056 1.58148 8.86669 1.48898 8.90572 1.39359C8.97654 1.21871 9.05169 1.18836 9.10083 1.18113C9.10661 1.17969 9.11372 1.17822 9.12094 1.17822ZM6.40666 4.54869L6.65525 5.95066L6.68561 5.94488C6.27946 8.188 6.1884 10.4888 6.44858 12.7451L6.25346 12.6844L4.8573 4.82191L6.40666 4.54869ZM16.6512 4.72791L18.2194 4.85799L17.4895 13.6658L15.3837 14.614L17.4736 6.7992C17.5054 6.68213 17.4851 6.55638 17.4187 6.45521C17.3536 6.3526 17.2481 6.28322 17.1281 6.26154L16.5327 6.16326L16.6512 4.72791ZM21.9481 6.10095L23.3385 6.81494L20.5534 12.2262L20.6156 12.258L18.5199 13.2018L21.9481 6.10095ZM8.68586 6.39435C8.53699 6.39868 8.39824 6.46083 8.29562 6.57212C8.17277 6.70509 8.12218 6.87853 8.15687 7.0563C8.17132 7.13146 8.21468 7.19939 8.27972 7.24275C8.34332 7.28611 8.42281 7.30201 8.49796 7.28755C8.6396 7.2572 8.73644 7.12857 8.72632 6.98404C8.73499 6.98837 8.74511 6.99126 8.78269 7.02162C8.83905 7.06498 8.92144 7.14447 9.0573 7.20084C9.18448 7.25431 9.32035 7.26876 9.45619 7.23986C9.59061 7.21095 9.71202 7.14158 9.80741 7.04041C9.9158 6.92623 9.91147 6.74412 9.79729 6.63426C9.74237 6.58078 9.66721 6.55187 9.59061 6.55332C9.51256 6.55477 9.43885 6.58801 9.38538 6.64293C9.37237 6.65738 9.35502 6.6675 9.33912 6.67184C9.32034 6.67473 9.29721 6.67328 9.28131 6.6675C9.26108 6.66027 9.21483 6.62125 9.13823 6.56199C9.05874 6.50129 8.94166 6.41746 8.76967 6.39723C8.74077 6.39434 8.71332 6.3929 8.68586 6.39435ZM14.9699 6.78026L16.5121 7.03752L14.5248 14.4723C14.3441 13.5039 14.0768 12.5544 13.6966 11.6395L14.9699 6.78026ZM3.11551 7.54338L4.77329 12.232L2.50127 11.5368L1.59651 8.07818L3.11551 7.54338ZM11.6951 7.55639L13.1447 7.67635L12.9424 10.1117C12.4568 9.2416 11.9552 8.425 11.6951 7.55639ZM8.52694 9.95273C8.44167 9.95129 8.35206 9.96429 8.26245 9.9932C8.07023 10.0568 7.91269 10.1883 7.82163 10.3675C7.74937 10.5092 7.80574 10.6826 7.94882 10.7549C8.01675 10.7896 8.09624 10.7954 8.16996 10.7722C8.24222 10.7477 8.30293 10.6956 8.33761 10.6277C8.35785 10.5887 8.40121 10.5554 8.44167 10.5424C8.47202 10.5337 8.51394 10.5251 8.56452 10.5337C8.61655 10.5395 8.67726 10.5598 8.74519 10.5858C8.87816 10.6378 9.04148 10.7274 9.25682 10.7795C9.58635 10.8589 9.87687 10.8026 10.1139 10.7881C10.231 10.7809 10.3495 10.7809 10.4651 10.7881C10.5432 10.7925 10.6183 10.7664 10.6761 10.7144C10.7339 10.6624 10.7686 10.5901 10.773 10.5135C10.7802 10.3545 10.6573 10.2187 10.4983 10.21C10.3596 10.2042 10.2208 10.2042 10.0821 10.21C9.80026 10.2288 9.56901 10.2577 9.39412 10.2158C9.27849 10.1883 9.13685 10.1146 8.9533 10.0452C8.8608 10.0091 8.75818 9.97586 8.64111 9.95996C8.60353 9.95562 8.56597 9.95273 8.52694 9.95273ZM1.94205 11.966L6.53079 13.3723C6.53079 13.3781 6.53079 13.3839 6.53224 13.3897L6.57126 13.3854L13.4451 15.4912L12.1183 16.0881L2.33924 12.8954C2.20482 12.5832 2.0649 12.2551 1.94205 11.966ZM10.351 12.3115C10.1704 12.3245 10.0157 12.4199 9.92469 12.576C9.83364 12.7321 9.82641 12.9142 9.9059 13.0775C9.93915 13.1469 9.99985 13.1989 10.0721 13.2249C10.1444 13.2495 10.2253 13.2437 10.2932 13.209C10.4016 13.1541 10.4638 13.037 10.4493 12.9171C10.4754 12.933 10.4999 12.9503 10.5447 12.9778C10.6604 13.0515 10.8179 13.1382 11.0231 13.1339C11.1576 13.1324 11.2862 13.0876 11.3931 13.0067C11.5015 12.9257 11.5796 12.813 11.6201 12.6844C11.6663 12.5341 11.5854 12.3751 11.4351 12.3259C11.3628 12.3014 11.2833 12.3086 11.2154 12.3433C11.146 12.378 11.094 12.4372 11.0708 12.5109C11.068 12.524 11.0564 12.537 11.0477 12.5427C11.0376 12.55 11.0203 12.5586 11.0087 12.5586C10.987 12.5586 10.9292 12.5413 10.8526 12.4922C10.8107 12.4661 10.7529 12.4242 10.6719 12.3838C10.5895 12.3418 10.4826 12.3043 10.3511 12.3129L10.351 12.3115ZM2.64024 13.6021L11.3367 16.4408L8.37239 17.7777L6.22033 17.0507C6.07001 17.0016 5.90669 17.081 5.85466 17.2299C5.83009 17.3036 5.83443 17.3831 5.86767 17.4525C5.90091 17.5219 5.96162 17.5753 6.03533 17.5999L7.5948 18.1275L5.04961 19.2751C4.71718 18.4946 4.39201 17.7257 4.06245 16.9495L4.87904 17.2357C5.02935 17.2892 5.19556 17.2111 5.24904 17.0608C5.27505 16.9886 5.27072 16.9091 5.23747 16.8397C5.20423 16.7703 5.14498 16.7183 5.07271 16.6923L3.75747 16.2283C3.373 15.3221 2.99145 14.4245 2.64024 13.6021ZM18.137 15.7195C18.0994 15.721 18.0618 15.7297 18.0271 15.7456L12.6014 18.1823C12.4598 18.2488 12.3962 18.4165 12.4598 18.561C12.5248 18.7055 12.6939 18.7706 12.8384 18.707L18.2641 16.2702C18.3349 16.2398 18.3899 16.182 18.4173 16.1098C18.4448 16.0375 18.4433 15.958 18.4115 15.8886C18.3624 15.7817 18.254 15.7152 18.137 15.7195ZM20.3439 15.9045C20.2269 15.8858 20.1127 15.9392 20.0505 16.039L18.8104 18.0508C18.7844 18.0552 18.7613 18.0624 18.7382 18.0725L13.597 20.3807C13.5262 20.4125 13.4713 20.4703 13.4438 20.5411C13.4164 20.6134 13.4178 20.6929 13.4496 20.7637C13.4814 20.8331 13.5407 20.888 13.6115 20.914C13.6837 20.9415 13.7632 20.9386 13.8341 20.9053L18.28 18.9079L17.6888 19.8676L14.09 21.4835C13.9469 21.55 13.8847 21.7176 13.9483 21.8607C14.0119 22.0052 14.181 22.0717 14.327 22.0081L17.1497 20.7406L16.5585 21.6988C16.5513 21.7003 16.5455 21.7031 16.5398 21.706L14.5886 22.5805C14.5163 22.6108 14.4614 22.6701 14.4339 22.7409C14.405 22.8132 14.4079 22.8941 14.4397 22.9649C14.4715 23.0343 14.5293 23.0907 14.6016 23.1181C14.6739 23.1456 14.7534 23.1427 14.8242 23.1109L16.0195 22.5732L14.8199 24.5143L8.63382 27.7301C8.23204 26.7791 8.20747 26.7198 7.65103 25.4017C7.62068 25.3309 7.56431 25.2731 7.49349 25.2442C7.42267 25.2153 7.34318 25.2153 7.27236 25.2442C7.20154 25.2745 7.14517 25.3309 7.11771 25.4017C7.0888 25.474 7.0888 25.5535 7.11915 25.6228C8.76824 29.5223 10.0257 32.5097 10.0257 32.5097C10.0662 32.6108 10.1616 32.6802 10.2714 32.6889C10.3798 32.6961 10.4853 32.6426 10.5417 32.5487L20.5431 16.3423C20.5836 16.2758 20.5952 16.1978 20.5778 16.1241C20.5605 16.0489 20.5128 15.9839 20.4477 15.9448C20.4159 15.9246 20.3801 15.9118 20.3439 15.9045ZM18.6341 16.8194C18.5965 16.8209 18.559 16.8281 18.5257 16.8426L13.1 19.2794C13.0292 19.3097 12.9743 19.3675 12.9454 19.4398C12.9179 19.512 12.9208 19.593 12.9526 19.6624C12.9844 19.7332 13.0422 19.7881 13.1145 19.8156C13.1868 19.843 13.2663 19.8416 13.3371 19.8098L18.7613 17.373C18.9058 17.3065 18.9694 17.1345 18.9029 16.99C18.8567 16.8845 18.7497 16.8166 18.6341 16.8194ZM11.5042 18.35C11.4536 18.3457 11.403 18.3544 11.3568 18.3746L7.13954 20.268C6.99356 20.333 6.92852 20.5035 6.99356 20.6495L9.15285 25.4436C9.21933 25.5881 9.38988 25.6517 9.53439 25.5881L13.7516 23.6933C13.8976 23.6283 13.9627 23.4577 13.8976 23.3118L11.7383 18.5192C11.695 18.4252 11.6068 18.3616 11.5042 18.35ZM11.3293 19.0192L13.2516 23.2857L9.56026 24.942L7.63944 20.6756L11.3293 19.0192ZM14.2315 25.4683L10.3421 31.7727C10.2482 31.5516 9.40408 29.5542 8.85777 28.2621L14.2315 25.4683Z" fill="#030303"/>
</svg>
