<svg width="104" height="17" viewBox="0 0 104 17" fill="none" xmlns="http://www.w3.org/2000/svg">
<path d="M0 16.12H16V0.12H0V16.12ZM25.2656 9.53125H22.0625L22.0469 8.71875H24.8047C25.3672 8.71875 25.8464 8.63802 26.2422 8.47656C26.638 8.3151 26.9375 8.07552 27.1406 7.75781C27.349 7.4349 27.4531 7.03906 27.4531 6.57031C27.4531 6.09115 27.3516 5.69531 27.1484 5.38281C26.9453 5.0651 26.6406 4.83073 26.2344 4.67969C25.8281 4.52865 25.3177 4.45312 24.7031 4.45312H22.3125V15H21.3516V3.625H24.7031C25.2812 3.625 25.7995 3.68229 26.2578 3.79688C26.7161 3.91146 27.1068 4.09115 27.4297 4.33594C27.7526 4.58073 27.9974 4.89062 28.1641 5.26562C28.3359 5.63542 28.4219 6.07812 28.4219 6.59375C28.4219 7.0625 28.3177 7.48698 28.1094 7.86719C27.901 8.24219 27.6068 8.54948 27.2266 8.78906C26.8516 9.02344 26.401 9.16927 25.875 9.22656L25.2656 9.53125ZM25.1953 15H21.7578L22.25 14.1797H25.1953C25.7578 14.1797 26.237 14.0859 26.6328 13.8984C27.0339 13.7057 27.3411 13.4323 27.5547 13.0781C27.7682 12.724 27.875 12.3021 27.875 11.8125C27.875 11.3802 27.7812 10.9922 27.5938 10.6484C27.4062 10.3047 27.1198 10.0339 26.7344 9.83594C26.349 9.63281 25.8594 9.53125 25.2656 9.53125H23.2734L23.2891 8.71875H26.1094L26.2812 9.00781C26.7917 9.0599 27.237 9.21875 27.6172 9.48438C28.0026 9.74479 28.2995 10.0755 28.5078 10.4766C28.7214 10.8776 28.8281 11.3177 28.8281 11.7969C28.8281 12.4844 28.6745 13.0677 28.3672 13.5469C28.0651 14.0208 27.6406 14.3828 27.0938 14.6328C26.5521 14.8776 25.9193 15 25.1953 15ZM31.875 7.94531V15H30.9453V6.54688H31.8516L31.875 7.94531ZM34.8672 6.48438L34.8438 7.34375C34.7396 7.32812 34.638 7.3151 34.5391 7.30469C34.4401 7.29427 34.3333 7.28906 34.2188 7.28906C33.8125 7.28906 33.4557 7.36458 33.1484 7.51562C32.8464 7.66146 32.5911 7.86719 32.3828 8.13281C32.1745 8.39323 32.0156 8.70052 31.9062 9.05469C31.7969 9.40365 31.7344 9.77865 31.7188 10.1797L31.375 10.3125C31.375 9.76042 31.4323 9.2474 31.5469 8.77344C31.6615 8.29948 31.8359 7.88542 32.0703 7.53125C32.3099 7.17188 32.6094 6.89323 32.9688 6.69531C33.3333 6.49219 33.7604 6.39062 34.25 6.39062C34.3698 6.39062 34.487 6.40104 34.6016 6.42188C34.7214 6.4375 34.8099 6.45833 34.8672 6.48438ZM37.375 6.54688V15H36.4453V6.54688H37.375ZM36.2812 4.10156C36.2812 3.92448 36.3359 3.77604 36.4453 3.65625C36.5599 3.53125 36.7161 3.46875 36.9141 3.46875C37.112 3.46875 37.2682 3.53125 37.3828 3.65625C37.5026 3.77604 37.5625 3.92448 37.5625 4.10156C37.5625 4.27344 37.5026 4.42188 37.3828 4.54688C37.2682 4.66667 37.112 4.72656 36.9141 4.72656C36.7161 4.72656 36.5599 4.66667 36.4453 4.54688C36.3359 4.42188 36.2812 4.27344 36.2812 4.10156ZM43.125 6.54688V7.3125H38.8906V6.54688H43.125ZM40.4453 4.375H41.375V12.9453C41.375 13.3359 41.4271 13.6302 41.5312 13.8281C41.6354 14.026 41.7708 14.1589 41.9375 14.2266C42.1042 14.2943 42.2839 14.3281 42.4766 14.3281C42.6172 14.3281 42.7526 14.3203 42.8828 14.3047C43.013 14.2839 43.1302 14.263 43.2344 14.2422L43.2734 15.0312C43.1589 15.0677 43.0104 15.0964 42.8281 15.1172C42.6458 15.1432 42.4635 15.1562 42.2812 15.1562C41.9219 15.1562 41.6042 15.0911 41.3281 14.9609C41.0521 14.8255 40.8359 14.5964 40.6797 14.2734C40.5234 13.9453 40.4453 13.5 40.4453 12.9375V4.375ZM50.1484 12.8438C50.1484 12.6146 50.0911 12.388 49.9766 12.1641C49.862 11.9401 49.6406 11.7344 49.3125 11.5469C48.9896 11.3594 48.513 11.2005 47.8828 11.0703C47.4141 10.9661 46.9948 10.849 46.625 10.7188C46.2604 10.5885 45.9531 10.4323 45.7031 10.25C45.4531 10.0677 45.263 9.84896 45.1328 9.59375C45.0026 9.33854 44.9375 9.03646 44.9375 8.6875C44.9375 8.375 45.0052 8.08073 45.1406 7.80469C45.2812 7.52344 45.4792 7.27865 45.7344 7.07031C45.9948 6.85677 46.3073 6.6901 46.6719 6.57031C47.0417 6.45052 47.4557 6.39062 47.9141 6.39062C48.5651 6.39062 49.1224 6.5026 49.5859 6.72656C50.0547 6.94531 50.4115 7.24479 50.6562 7.625C50.9062 8.00521 51.0312 8.4349 51.0312 8.91406H50.1016C50.1016 8.6224 50.0156 8.34635 49.8438 8.08594C49.6771 7.82552 49.4297 7.61198 49.1016 7.44531C48.7786 7.27865 48.3828 7.19531 47.9141 7.19531C47.4297 7.19531 47.0365 7.26823 46.7344 7.41406C46.4323 7.5599 46.2109 7.74479 46.0703 7.96875C45.9349 8.19271 45.8672 8.42448 45.8672 8.66406C45.8672 8.85156 45.8958 9.02344 45.9531 9.17969C46.0156 9.33073 46.125 9.47135 46.2812 9.60156C46.4427 9.73177 46.6719 9.85417 46.9688 9.96875C47.2656 10.0833 47.651 10.1953 48.125 10.3047C48.8073 10.4557 49.3646 10.6406 49.7969 10.8594C50.2344 11.0729 50.5573 11.3385 50.7656 11.6562C50.974 11.9688 51.0781 12.349 51.0781 12.7969C51.0781 13.1458 51.0052 13.4661 50.8594 13.7578C50.7135 14.0443 50.5026 14.2917 50.2266 14.5C49.9557 14.7083 49.6276 14.8698 49.2422 14.9844C48.862 15.099 48.4349 15.1562 47.9609 15.1562C47.2474 15.1562 46.6432 15.0391 46.1484 14.8047C45.6589 14.5651 45.2865 14.2526 45.0312 13.8672C44.7812 13.4766 44.6562 13.0625 44.6562 12.625H45.5859C45.6172 13.0625 45.7552 13.4089 46 13.6641C46.2448 13.9141 46.5443 14.0911 46.8984 14.1953C47.2578 14.2995 47.612 14.3516 47.9609 14.3516C48.4401 14.3516 48.8411 14.2812 49.1641 14.1406C49.487 14 49.7318 13.8151 49.8984 13.5859C50.0651 13.3568 50.1484 13.1094 50.1484 12.8438ZM62.2422 13.4844V9.125C62.2422 8.72396 62.1589 8.3776 61.9922 8.08594C61.8255 7.79427 61.5807 7.57031 61.2578 7.41406C60.9349 7.25781 60.5365 7.17969 60.0625 7.17969C59.625 7.17969 59.2344 7.25781 58.8906 7.41406C58.5521 7.5651 58.2839 7.77083 58.0859 8.03125C57.8932 8.28646 57.7969 8.57031 57.7969 8.88281L56.8594 8.875C56.8594 8.55729 56.9375 8.25 57.0938 7.95312C57.25 7.65625 57.4714 7.39062 57.7578 7.15625C58.0443 6.92188 58.3854 6.73698 58.7812 6.60156C59.1823 6.46094 59.6224 6.39062 60.1016 6.39062C60.7057 6.39062 61.237 6.49219 61.6953 6.69531C62.1589 6.89844 62.5208 7.20312 62.7812 7.60938C63.0417 8.01562 63.1719 8.52604 63.1719 9.14062V13.2266C63.1719 13.5182 63.1927 13.8203 63.2344 14.1328C63.2812 14.4453 63.3464 14.7031 63.4297 14.9062V15H62.4375C62.375 14.8125 62.3255 14.5781 62.2891 14.2969C62.2578 14.0104 62.2422 13.7396 62.2422 13.4844ZM62.4609 10.0781L62.4766 10.7969H60.6406C60.1615 10.7969 59.7318 10.8411 59.3516 10.9297C58.9766 11.013 58.6589 11.138 58.3984 11.3047C58.138 11.4661 57.9375 11.6615 57.7969 11.8906C57.6615 12.1198 57.5938 12.3802 57.5938 12.6719C57.5938 12.974 57.6693 13.25 57.8203 13.5C57.9766 13.75 58.1953 13.9505 58.4766 14.1016C58.763 14.2474 59.1016 14.3203 59.4922 14.3203C60.013 14.3203 60.4714 14.224 60.8672 14.0312C61.2682 13.8385 61.599 13.5859 61.8594 13.2734C62.1198 12.9609 62.2943 12.6198 62.3828 12.25L62.7891 12.7891C62.7214 13.0495 62.5964 13.3177 62.4141 13.5938C62.237 13.8646 62.0052 14.1198 61.7188 14.3594C61.4323 14.5938 61.0938 14.7865 60.7031 14.9375C60.3177 15.0833 59.8802 15.1562 59.3906 15.1562C58.8385 15.1562 58.3568 15.0521 57.9453 14.8438C57.5391 14.6354 57.2214 14.3516 56.9922 13.9922C56.7682 13.6276 56.6562 13.2161 56.6562 12.7578C56.6562 12.3411 56.7448 11.9688 56.9219 11.6406C57.099 11.3073 57.3542 11.026 57.6875 10.7969C58.026 10.5625 58.4323 10.3854 58.9062 10.2656C59.3854 10.1406 59.9219 10.0781 60.5156 10.0781H62.4609ZM65.6641 3H66.6016V13.3594L66.5391 15H65.6641V3ZM72.4844 10.6953V10.8594C72.4844 11.4896 72.4115 12.0677 72.2656 12.5938C72.1198 13.1198 71.9089 13.5755 71.6328 13.9609C71.3568 14.3411 71.0182 14.6354 70.6172 14.8438C70.2214 15.0521 69.7656 15.1562 69.25 15.1562C68.7448 15.1562 68.2969 15.0781 67.9062 14.9219C67.5156 14.7604 67.1823 14.5339 66.9062 14.2422C66.6302 13.9453 66.4089 13.599 66.2422 13.2031C66.0755 12.8021 65.9583 12.362 65.8906 11.8828V9.79688C65.9688 9.28646 66.0938 8.82292 66.2656 8.40625C66.4375 7.98958 66.6589 7.63021 66.9297 7.32812C67.2057 7.02604 67.5339 6.79427 67.9141 6.63281C68.2995 6.47135 68.7396 6.39062 69.2344 6.39062C69.75 6.39062 70.2083 6.49219 70.6094 6.69531C71.0156 6.89323 71.3568 7.18229 71.6328 7.5625C71.9089 7.9375 72.1198 8.39062 72.2656 8.92188C72.4115 9.44792 72.4844 10.0391 72.4844 10.6953ZM71.5391 10.8594V10.6953C71.5391 10.2005 71.4922 9.74219 71.3984 9.32031C71.3047 8.89844 71.1562 8.53125 70.9531 8.21875C70.7552 7.90104 70.5 7.65365 70.1875 7.47656C69.875 7.29948 69.5 7.21094 69.0625 7.21094C68.6146 7.21094 68.2318 7.28646 67.9141 7.4375C67.6016 7.58333 67.3411 7.77865 67.1328 8.02344C66.9297 8.26302 66.7682 8.52604 66.6484 8.8125C66.5286 9.09896 66.4401 9.38021 66.3828 9.65625V12.0859C66.4714 12.4766 66.625 12.8438 66.8438 13.1875C67.0625 13.5312 67.3568 13.8099 67.7266 14.0234C68.0964 14.2318 68.5469 14.3359 69.0781 14.3359C69.5052 14.3359 69.8724 14.2474 70.1797 14.0703C70.4922 13.8932 70.7474 13.6484 70.9453 13.3359C71.1484 13.0234 71.2969 12.6562 71.3906 12.2344C71.4896 11.8125 71.5391 11.3542 71.5391 10.8594ZM75.4844 7.94531V15H74.5547V6.54688H75.4609L75.4844 7.94531ZM78.4766 6.48438L78.4531 7.34375C78.349 7.32812 78.2474 7.3151 78.1484 7.30469C78.0495 7.29427 77.9427 7.28906 77.8281 7.28906C77.4219 7.28906 77.0651 7.36458 76.7578 7.51562C76.4557 7.66146 76.2005 7.86719 75.9922 8.13281C75.7839 8.39323 75.625 8.70052 75.5156 9.05469C75.4062 9.40365 75.3438 9.77865 75.3281 10.1797L74.9844 10.3125C74.9844 9.76042 75.0417 9.2474 75.1562 8.77344C75.2708 8.29948 75.4453 7.88542 75.6797 7.53125C75.9193 7.17188 76.2188 6.89323 76.5781 6.69531C76.9427 6.49219 77.3698 6.39062 77.8594 6.39062C77.9792 6.39062 78.0964 6.40104 78.2109 6.42188C78.3307 6.4375 78.4193 6.45833 78.4766 6.48438ZM79.2734 10.9062V10.6484C79.2734 10.0339 79.362 9.46615 79.5391 8.94531C79.7161 8.42448 79.9688 7.97396 80.2969 7.59375C80.6302 7.21354 81.0286 6.91927 81.4922 6.71094C81.9557 6.4974 82.4714 6.39062 83.0391 6.39062C83.612 6.39062 84.1302 6.4974 84.5938 6.71094C85.0573 6.91927 85.4557 7.21354 85.7891 7.59375C86.1224 7.97396 86.3776 8.42448 86.5547 8.94531C86.7318 9.46615 86.8203 10.0339 86.8203 10.6484V10.9062C86.8203 11.5208 86.7318 12.0885 86.5547 12.6094C86.3776 13.125 86.1224 13.5729 85.7891 13.9531C85.4609 14.3333 85.0651 14.6302 84.6016 14.8438C84.138 15.0521 83.6224 15.1562 83.0547 15.1562C82.4818 15.1562 81.9635 15.0521 81.5 14.8438C81.0365 14.6302 80.638 14.3333 80.3047 13.9531C79.9714 13.5729 79.7161 13.125 79.5391 12.6094C79.362 12.0885 79.2734 11.5208 79.2734 10.9062ZM80.2031 10.6484V10.9062C80.2031 11.3698 80.2656 11.8099 80.3906 12.2266C80.5156 12.638 80.6979 13.0052 80.9375 13.3281C81.1771 13.6458 81.474 13.8958 81.8281 14.0781C82.1823 14.2604 82.5911 14.3516 83.0547 14.3516C83.513 14.3516 83.9167 14.2604 84.2656 14.0781C84.6198 13.8958 84.9167 13.6458 85.1562 13.3281C85.3958 13.0052 85.5755 12.638 85.6953 12.2266C85.8203 11.8099 85.8828 11.3698 85.8828 10.9062V10.6484C85.8828 10.1901 85.8203 9.75521 85.6953 9.34375C85.5755 8.93229 85.3932 8.5651 85.1484 8.24219C84.9089 7.91927 84.612 7.66406 84.2578 7.47656C83.9036 7.28906 83.4974 7.19531 83.0391 7.19531C82.5807 7.19531 82.1745 7.28906 81.8203 7.47656C81.4714 7.66406 81.1745 7.91927 80.9297 8.24219C80.6901 8.5651 80.5078 8.93229 80.3828 9.34375C80.263 9.75521 80.2031 10.1901 80.2031 10.6484ZM93.8984 13.4844V9.125C93.8984 8.72396 93.8151 8.3776 93.6484 8.08594C93.4818 7.79427 93.237 7.57031 92.9141 7.41406C92.5911 7.25781 92.1927 7.17969 91.7188 7.17969C91.2812 7.17969 90.8906 7.25781 90.5469 7.41406C90.2083 7.5651 89.9401 7.77083 89.7422 8.03125C89.5495 8.28646 89.4531 8.57031 89.4531 8.88281L88.5156 8.875C88.5156 8.55729 88.5938 8.25 88.75 7.95312C88.9062 7.65625 89.1276 7.39062 89.4141 7.15625C89.7005 6.92188 90.0417 6.73698 90.4375 6.60156C90.8385 6.46094 91.2786 6.39062 91.7578 6.39062C92.362 6.39062 92.8932 6.49219 93.3516 6.69531C93.8151 6.89844 94.1771 7.20312 94.4375 7.60938C94.6979 8.01562 94.8281 8.52604 94.8281 9.14062V13.2266C94.8281 13.5182 94.849 13.8203 94.8906 14.1328C94.9375 14.4453 95.0026 14.7031 95.0859 14.9062V15H94.0938C94.0312 14.8125 93.9818 14.5781 93.9453 14.2969C93.9141 14.0104 93.8984 13.7396 93.8984 13.4844ZM94.1172 10.0781L94.1328 10.7969H92.2969C91.8177 10.7969 91.388 10.8411 91.0078 10.9297C90.6328 11.013 90.3151 11.138 90.0547 11.3047C89.7943 11.4661 89.5938 11.6615 89.4531 11.8906C89.3177 12.1198 89.25 12.3802 89.25 12.6719C89.25 12.974 89.3255 13.25 89.4766 13.5C89.6328 13.75 89.8516 13.9505 90.1328 14.1016C90.4193 14.2474 90.7578 14.3203 91.1484 14.3203C91.6693 14.3203 92.1276 14.224 92.5234 14.0312C92.9245 13.8385 93.2552 13.5859 93.5156 13.2734C93.776 12.9609 93.9505 12.6198 94.0391 12.25L94.4453 12.7891C94.3776 13.0495 94.2526 13.3177 94.0703 13.5938C93.8932 13.8646 93.6615 14.1198 93.375 14.3594C93.0885 14.5938 92.75 14.7865 92.3594 14.9375C91.974 15.0833 91.5365 15.1562 91.0469 15.1562C90.4948 15.1562 90.013 15.0521 89.6016 14.8438C89.1953 14.6354 88.8776 14.3516 88.6484 13.9922C88.4245 13.6276 88.3125 13.2161 88.3125 12.7578C88.3125 12.3411 88.401 11.9688 88.5781 11.6406C88.7552 11.3073 89.0104 11.026 89.3438 10.7969C89.6823 10.5625 90.0885 10.3854 90.5625 10.2656C91.0417 10.1406 91.5781 10.0781 92.1719 10.0781H94.1172ZM102.828 13.3594V3H103.766V15H102.891L102.828 13.3594ZM96.9609 10.8594V10.6953C96.9609 10.0391 97.0365 9.44792 97.1875 8.92188C97.3385 8.39062 97.5547 7.9375 97.8359 7.5625C98.1224 7.18229 98.4661 6.89323 98.8672 6.69531C99.2682 6.49219 99.7214 6.39062 100.227 6.39062C100.721 6.39062 101.159 6.47135 101.539 6.63281C101.919 6.79427 102.245 7.02604 102.516 7.32812C102.792 7.63021 103.013 7.98958 103.18 8.40625C103.352 8.82292 103.477 9.28646 103.555 9.79688V11.8828C103.492 12.362 103.378 12.8021 103.211 13.2031C103.044 13.599 102.823 13.9453 102.547 14.2422C102.271 14.5339 101.938 14.7604 101.547 14.9219C101.161 15.0781 100.716 15.1562 100.211 15.1562C99.7109 15.1562 99.2604 15.0521 98.8594 14.8438C98.4583 14.6354 98.1172 14.3411 97.8359 13.9609C97.5547 13.5755 97.3385 13.1198 97.1875 12.5938C97.0365 12.0677 96.9609 11.4896 96.9609 10.8594ZM97.8984 10.6953V10.8594C97.8984 11.3542 97.9479 11.8125 98.0469 12.2344C98.1458 12.6562 98.2969 13.0234 98.5 13.3359C98.7031 13.6484 98.9609 13.8932 99.2734 14.0703C99.5859 14.2474 99.9557 14.3359 100.383 14.3359C100.919 14.3359 101.37 14.2344 101.734 14.0312C102.099 13.8229 102.391 13.5495 102.609 13.2109C102.828 12.8672 102.987 12.4922 103.086 12.0859V9.65625C103.023 9.38021 102.932 9.09896 102.812 8.8125C102.693 8.52604 102.529 8.26302 102.32 8.02344C102.117 7.77865 101.857 7.58333 101.539 7.4375C101.227 7.28646 100.846 7.21094 100.398 7.21094C99.9661 7.21094 99.5938 7.29948 99.2812 7.47656C98.9688 7.65365 98.7083 7.90104 98.5 8.21875C98.2969 8.53125 98.1458 8.89844 98.0469 9.32031C97.9479 9.74219 97.8984 10.2005 97.8984 10.6953Z" fill="#030303"/>
</svg>
