<svg width="28" height="24" viewBox="0 0 28 24" fill="none" xmlns="http://www.w3.org/2000/svg">
<path fill-rule="evenodd" clip-rule="evenodd" d="M3.0536 0.0866942C1.59344 0.0866942 0.406342 1.28084 0.406342 2.74334V17.4163C0.406342 18.8788 1.59344 20.0695 3.0536 20.0695H5.01296V23.4445L5.01179 23.4433C5.01179 23.6273 5.11843 23.7937 5.28484 23.8699C5.45242 23.9472 5.64811 23.9191 5.78641 23.7996L10.14 20.0682H24.9456C26.4058 20.0682 27.5929 18.8775 27.5929 17.415L27.594 12.2247V2.74323C27.594 1.28073 26.4058 0.0865784 24.9468 0.0865784L3.0536 0.0866942ZM3.0536 1.02419H11.3927V7.05359L2.531 1.10399C2.69507 1.05243 2.86967 1.02431 3.05249 1.02431L3.0536 1.02419ZM12.3302 1.02419H15.6701V7.93109C15.6701 8.05531 15.7193 8.17602 15.8072 8.26391C15.8963 8.35298 16.0158 8.4022 16.1412 8.40102H26.6565V11.7574H16.1412C15.8822 11.7574 15.6713 11.966 15.6701 12.225V19.1319H12.3302V12.225C12.329 11.966 12.1181 11.7574 11.8591 11.7574H1.34382V8.40102H11.8591C11.9845 8.40219 12.104 8.35297 12.1931 8.26391C12.281 8.17602 12.3302 8.05532 12.3302 7.93109L12.3302 1.02419ZM16.6076 1.02419H24.9467C25.1307 1.02419 25.3065 1.05232 25.4717 1.10505L16.6088 7.05345L16.6076 1.02419ZM1.7084 1.67576L10.3241 7.46366H1.3439V2.74346C1.3439 2.33681 1.4799 1.96757 1.7084 1.67576ZM26.2943 1.67811C26.5217 1.96991 26.6564 2.33787 26.6564 2.74335V7.46355H17.6774L26.2943 1.67811ZM1.3439 12.695H10.3229L1.7072 18.4805C1.47986 18.1899 1.34393 17.8219 1.34393 17.4153L1.3439 12.695ZM17.6774 12.695H26.6564V17.4152C26.6564 17.8207 26.5216 18.1875 26.2943 18.4781L17.6774 12.695ZM11.3927 13.1063V19.1321H9.9677C9.8552 19.1321 9.74739 19.1732 9.66185 19.2458L5.94935 22.4252V19.6021C5.95052 19.3432 5.74193 19.1322 5.48294 19.1322H3.05363C2.87199 19.1322 2.69855 19.1041 2.53565 19.0537L11.3927 13.1063ZM16.6076 13.1063L25.4669 19.0523C25.3028 19.1039 25.1282 19.1309 24.9454 19.1309L16.6075 19.132L16.6076 13.1063Z" fill="black"/>
</svg>