<svg width="109" height="17" viewBox="0 0 109 17" fill="none" xmlns="http://www.w3.org/2000/svg">
<path d="M7.27344 14.1797V15H1.375V14.1797H7.27344ZM1.65625 3.625V15H0.695312V3.625H1.65625ZM8.39844 10.9062V10.6484C8.39844 10.0339 8.48698 9.46615 8.66406 8.94531C8.84115 8.42448 9.09375 7.97396 9.42188 7.59375C9.75521 7.21354 10.1536 6.91927 10.6172 6.71094C11.0807 6.4974 11.5964 6.39062 12.1641 6.39062C12.737 6.39062 13.2552 6.4974 13.7188 6.71094C14.1823 6.91927 14.5807 7.21354 14.9141 7.59375C15.2474 7.97396 15.5026 8.42448 15.6797 8.94531C15.8568 9.46615 15.9453 10.0339 15.9453 10.6484V10.9062C15.9453 11.5208 15.8568 12.0885 15.6797 12.6094C15.5026 13.125 15.2474 13.5729 14.9141 13.9531C14.5859 14.3333 14.1901 14.6302 13.7266 14.8438C13.263 15.0521 12.7474 15.1562 12.1797 15.1562C11.6068 15.1562 11.0885 15.0521 10.625 14.8438C10.1615 14.6302 9.76302 14.3333 9.42969 13.9531C9.09635 13.5729 8.84115 13.125 8.66406 12.6094C8.48698 12.0885 8.39844 11.5208 8.39844 10.9062ZM9.32812 10.6484V10.9062C9.32812 11.3698 9.39062 11.8099 9.51562 12.2266C9.64062 12.638 9.82292 13.0052 10.0625 13.3281C10.3021 13.6458 10.599 13.8958 10.9531 14.0781C11.3073 14.2604 11.7161 14.3516 12.1797 14.3516C12.638 14.3516 13.0417 14.2604 13.3906 14.0781C13.7448 13.8958 14.0417 13.6458 14.2812 13.3281C14.5208 13.0052 14.7005 12.638 14.8203 12.2266C14.9453 11.8099 15.0078 11.3698 15.0078 10.9062V10.6484C15.0078 10.1901 14.9453 9.75521 14.8203 9.34375C14.7005 8.93229 14.5182 8.5651 14.2734 8.24219C14.0339 7.91927 13.737 7.66406 13.3828 7.47656C13.0286 7.28906 12.6224 7.19531 12.1641 7.19531C11.7057 7.19531 11.2995 7.28906 10.9453 7.47656C10.5964 7.66406 10.2995 7.91927 10.0547 8.24219C9.8151 8.5651 9.63281 8.93229 9.50781 9.34375C9.38802 9.75521 9.32812 10.1901 9.32812 10.6484ZM21 14.3516C21.3958 14.3516 21.7656 14.2786 22.1094 14.1328C22.4583 13.9818 22.7448 13.7604 22.9688 13.4688C23.1979 13.1719 23.3281 12.8099 23.3594 12.3828H24.25C24.224 12.9193 24.0599 13.3984 23.7578 13.8203C23.4609 14.237 23.0703 14.5651 22.5859 14.8047C22.1068 15.0391 21.5781 15.1562 21 15.1562C20.4115 15.1562 19.8906 15.0495 19.4375 14.8359C18.9896 14.6224 18.6146 14.3255 18.3125 13.9453C18.0104 13.5599 17.7812 13.112 17.625 12.6016C17.474 12.0859 17.3984 11.5312 17.3984 10.9375V10.6094C17.3984 10.0156 17.474 9.46354 17.625 8.95312C17.7812 8.4375 18.0104 7.98958 18.3125 7.60938C18.6146 7.22396 18.9896 6.92448 19.4375 6.71094C19.8854 6.4974 20.4036 6.39062 20.9922 6.39062C21.5964 6.39062 22.138 6.51302 22.6172 6.75781C23.1016 7.0026 23.487 7.34896 23.7734 7.79688C24.0651 8.24479 24.224 8.77604 24.25 9.39062H23.3594C23.3333 8.9375 23.2135 8.54688 23 8.21875C22.7865 7.89062 22.5052 7.63802 22.1562 7.46094C21.8073 7.28385 21.4193 7.19531 20.9922 7.19531C20.513 7.19531 20.1042 7.28906 19.7656 7.47656C19.4271 7.65885 19.151 7.91146 18.9375 8.23438C18.7292 8.55208 18.5755 8.91667 18.4766 9.32812C18.3776 9.73438 18.3281 10.1615 18.3281 10.6094V10.9375C18.3281 11.3906 18.375 11.8229 18.4688 12.2344C18.5677 12.6406 18.7214 13.0026 18.9297 13.3203C19.1432 13.638 19.4193 13.8906 19.7578 14.0781C20.1016 14.2604 20.5156 14.3516 21 14.3516ZM31.2734 13.4844V9.125C31.2734 8.72396 31.1901 8.3776 31.0234 8.08594C30.8568 7.79427 30.612 7.57031 30.2891 7.41406C29.9661 7.25781 29.5677 7.17969 29.0938 7.17969C28.6562 7.17969 28.2656 7.25781 27.9219 7.41406C27.5833 7.5651 27.3151 7.77083 27.1172 8.03125C26.9245 8.28646 26.8281 8.57031 26.8281 8.88281L25.8906 8.875C25.8906 8.55729 25.9688 8.25 26.125 7.95312C26.2812 7.65625 26.5026 7.39062 26.7891 7.15625C27.0755 6.92188 27.4167 6.73698 27.8125 6.60156C28.2135 6.46094 28.6536 6.39062 29.1328 6.39062C29.737 6.39062 30.2682 6.49219 30.7266 6.69531C31.1901 6.89844 31.5521 7.20312 31.8125 7.60938C32.0729 8.01562 32.2031 8.52604 32.2031 9.14062V13.2266C32.2031 13.5182 32.224 13.8203 32.2656 14.1328C32.3125 14.4453 32.3776 14.7031 32.4609 14.9062V15H31.4688C31.4062 14.8125 31.3568 14.5781 31.3203 14.2969C31.2891 14.0104 31.2734 13.7396 31.2734 13.4844ZM31.4922 10.0781L31.5078 10.7969H29.6719C29.1927 10.7969 28.763 10.8411 28.3828 10.9297C28.0078 11.013 27.6901 11.138 27.4297 11.3047C27.1693 11.4661 26.9688 11.6615 26.8281 11.8906C26.6927 12.1198 26.625 12.3802 26.625 12.6719C26.625 12.974 26.7005 13.25 26.8516 13.5C27.0078 13.75 27.2266 13.9505 27.5078 14.1016C27.7943 14.2474 28.1328 14.3203 28.5234 14.3203C29.0443 14.3203 29.5026 14.224 29.8984 14.0312C30.2995 13.8385 30.6302 13.5859 30.8906 13.2734C31.151 12.9609 31.3255 12.6198 31.4141 12.25L31.8203 12.7891C31.7526 13.0495 31.6276 13.3177 31.4453 13.5938C31.2682 13.8646 31.0365 14.1198 30.75 14.3594C30.4635 14.5938 30.125 14.7865 29.7344 14.9375C29.349 15.0833 28.9115 15.1562 28.4219 15.1562C27.8698 15.1562 27.388 15.0521 26.9766 14.8438C26.5703 14.6354 26.2526 14.3516 26.0234 13.9922C25.7995 13.6276 25.6875 13.2161 25.6875 12.7578C25.6875 12.3411 25.776 11.9688 25.9531 11.6406C26.1302 11.3073 26.3854 11.026 26.7188 10.7969C27.0573 10.5625 27.4635 10.3854 27.9375 10.2656C28.4167 10.1406 28.9531 10.0781 29.5469 10.0781H31.4922ZM35.75 3V15H34.8203V3H35.75ZM45.3281 14.3516C45.724 14.3516 46.0938 14.2786 46.4375 14.1328C46.7865 13.9818 47.0729 13.7604 47.2969 13.4688C47.526 13.1719 47.6562 12.8099 47.6875 12.3828H48.5781C48.5521 12.9193 48.388 13.3984 48.0859 13.8203C47.7891 14.237 47.3984 14.5651 46.9141 14.8047C46.4349 15.0391 45.9062 15.1562 45.3281 15.1562C44.7396 15.1562 44.2188 15.0495 43.7656 14.8359C43.3177 14.6224 42.9427 14.3255 42.6406 13.9453C42.3385 13.5599 42.1094 13.112 41.9531 12.6016C41.8021 12.0859 41.7266 11.5312 41.7266 10.9375V10.6094C41.7266 10.0156 41.8021 9.46354 41.9531 8.95312C42.1094 8.4375 42.3385 7.98958 42.6406 7.60938C42.9427 7.22396 43.3177 6.92448 43.7656 6.71094C44.2135 6.4974 44.7318 6.39062 45.3203 6.39062C45.9245 6.39062 46.4661 6.51302 46.9453 6.75781C47.4297 7.0026 47.8151 7.34896 48.1016 7.79688C48.3932 8.24479 48.5521 8.77604 48.5781 9.39062H47.6875C47.6615 8.9375 47.5417 8.54688 47.3281 8.21875C47.1146 7.89062 46.8333 7.63802 46.4844 7.46094C46.1354 7.28385 45.7474 7.19531 45.3203 7.19531C44.8411 7.19531 44.4323 7.28906 44.0938 7.47656C43.7552 7.65885 43.4792 7.91146 43.2656 8.23438C43.0573 8.55208 42.9036 8.91667 42.8047 9.32812C42.7057 9.73438 42.6562 10.1615 42.6562 10.6094V10.9375C42.6562 11.3906 42.7031 11.8229 42.7969 12.2344C42.8958 12.6406 43.0495 13.0026 43.2578 13.3203C43.4714 13.638 43.7474 13.8906 44.0859 14.0781C44.4297 14.2604 44.8438 14.3516 45.3281 14.3516ZM55.875 13.0469V6.54688H56.8125V15H55.9141L55.875 13.0469ZM56.0469 11.4844L56.5312 11.4688C56.5312 12 56.4688 12.4896 56.3438 12.9375C56.2188 13.3854 56.0234 13.776 55.7578 14.1094C55.4922 14.4427 55.1484 14.7005 54.7266 14.8828C54.3047 15.0651 53.7969 15.1562 53.2031 15.1562C52.7917 15.1562 52.4141 15.099 52.0703 14.9844C51.7318 14.8646 51.4401 14.6771 51.1953 14.4219C50.9505 14.1667 50.7604 13.8359 50.625 13.4297C50.4948 13.0234 50.4297 12.5312 50.4297 11.9531V6.54688H51.3594V11.9688C51.3594 12.4219 51.4089 12.7995 51.5078 13.1016C51.612 13.4036 51.7526 13.6458 51.9297 13.8281C52.112 14.0104 52.3203 14.1406 52.5547 14.2188C52.7891 14.2969 53.0417 14.3359 53.3125 14.3359C54 14.3359 54.5417 14.2031 54.9375 13.9375C55.3385 13.6719 55.6224 13.3229 55.7891 12.8906C55.9609 12.4531 56.0469 11.9844 56.0469 11.4844ZM60.2969 3V15H59.3672V3H60.2969ZM66.0469 6.54688V7.3125H61.8125V6.54688H66.0469ZM63.3672 4.375H64.2969V12.9453C64.2969 13.3359 64.349 13.6302 64.4531 13.8281C64.5573 14.026 64.6927 14.1589 64.8594 14.2266C65.026 14.2943 65.2057 14.3281 65.3984 14.3281C65.5391 14.3281 65.6745 14.3203 65.8047 14.3047C65.9349 14.2839 66.0521 14.263 66.1562 14.2422L66.1953 15.0312C66.0807 15.0677 65.9323 15.0964 65.75 15.1172C65.5677 15.1432 65.3854 15.1562 65.2031 15.1562C64.8438 15.1562 64.526 15.0911 64.25 14.9609C63.974 14.8255 63.7578 14.5964 63.6016 14.2734C63.4453 13.9453 63.3672 13.5 63.3672 12.9375V4.375ZM73.4219 13.0469V6.54688H74.3594V15H73.4609L73.4219 13.0469ZM73.5938 11.4844L74.0781 11.4688C74.0781 12 74.0156 12.4896 73.8906 12.9375C73.7656 13.3854 73.5703 13.776 73.3047 14.1094C73.0391 14.4427 72.6953 14.7005 72.2734 14.8828C71.8516 15.0651 71.3438 15.1562 70.75 15.1562C70.3385 15.1562 69.9609 15.099 69.6172 14.9844C69.2786 14.8646 68.987 14.6771 68.7422 14.4219C68.4974 14.1667 68.3073 13.8359 68.1719 13.4297C68.0417 13.0234 67.9766 12.5312 67.9766 11.9531V6.54688H68.9062V11.9688C68.9062 12.4219 68.9557 12.7995 69.0547 13.1016C69.1589 13.4036 69.2995 13.6458 69.4766 13.8281C69.6589 14.0104 69.8672 14.1406 70.1016 14.2188C70.3359 14.2969 70.5885 14.3359 70.8594 14.3359C71.5469 14.3359 72.0885 14.2031 72.4844 13.9375C72.8854 13.6719 73.1693 13.3229 73.3359 12.8906C73.5078 12.4531 73.5938 11.9844 73.5938 11.4844ZM77.7344 7.94531V15H76.8047V6.54688H77.7109L77.7344 7.94531ZM80.7266 6.48438L80.7031 7.34375C80.599 7.32812 80.4974 7.3151 80.3984 7.30469C80.2995 7.29427 80.1927 7.28906 80.0781 7.28906C79.6719 7.28906 79.3151 7.36458 79.0078 7.51562C78.7057 7.66146 78.4505 7.86719 78.2422 8.13281C78.0339 8.39323 77.875 8.70052 77.7656 9.05469C77.6562 9.40365 77.5938 9.77865 77.5781 10.1797L77.2344 10.3125C77.2344 9.76042 77.2917 9.2474 77.4062 8.77344C77.5208 8.29948 77.6953 7.88542 77.9297 7.53125C78.1693 7.17188 78.4688 6.89323 78.8281 6.69531C79.1927 6.49219 79.6198 6.39062 80.1094 6.39062C80.2292 6.39062 80.3464 6.40104 80.4609 6.42188C80.5807 6.4375 80.6693 6.45833 80.7266 6.48438ZM85.3047 15.1562C84.7526 15.1562 84.2448 15.0547 83.7812 14.8516C83.3229 14.6484 82.9219 14.362 82.5781 13.9922C82.2396 13.6224 81.9766 13.1849 81.7891 12.6797C81.6068 12.1693 81.5156 11.612 81.5156 11.0078V10.6719C81.5156 10.0208 81.612 9.43229 81.8047 8.90625C81.9974 8.38021 82.263 7.92969 82.6016 7.55469C82.9401 7.17969 83.3255 6.89323 83.7578 6.69531C84.1953 6.49219 84.6536 6.39062 85.1328 6.39062C85.6693 6.39062 86.1458 6.48698 86.5625 6.67969C86.9792 6.86719 87.3281 7.13542 87.6094 7.48438C87.8958 7.82812 88.112 8.23698 88.2578 8.71094C88.4036 9.17969 88.4766 9.69792 88.4766 10.2656V10.8359H82.0781V10.0391H87.5469V9.92969C87.5365 9.45573 87.4401 9.01302 87.2578 8.60156C87.0807 8.1849 86.8151 7.84635 86.4609 7.58594C86.1068 7.32552 85.6641 7.19531 85.1328 7.19531C84.737 7.19531 84.3724 7.27865 84.0391 7.44531C83.7109 7.61198 83.4271 7.85156 83.1875 8.16406C82.9531 8.47135 82.7708 8.83854 82.6406 9.26562C82.5156 9.6875 82.4531 10.1562 82.4531 10.6719V11.0078C82.4531 11.4766 82.5208 11.9141 82.6562 12.3203C82.7969 12.7214 82.9948 13.0755 83.25 13.3828C83.5104 13.6901 83.8177 13.9297 84.1719 14.1016C84.526 14.2734 84.9167 14.3594 85.3438 14.3594C85.8438 14.3594 86.2865 14.2682 86.6719 14.0859C87.0573 13.8984 87.4036 13.6042 87.7109 13.2031L88.2969 13.6562C88.1146 13.9271 87.8854 14.1771 87.6094 14.4062C87.3385 14.6354 87.013 14.8177 86.6328 14.9531C86.2526 15.0885 85.8099 15.1562 85.3047 15.1562ZM93 16.12H109V0.12H93V16.12Z" fill="#030303"/>
</svg>
