<svg width="31" height="31" viewBox="0 0 31 31" fill="none" xmlns="http://www.w3.org/2000/svg">
<path d="M15.5 0.929997C13.4353 0.929997 11.3696 1.72075 9.79879 3.29133C8.21729 4.86191 7.47016 6.94964 7.48104 9.02509C4.35066 9.16798 1.85733 11.7267 1.85733 14.8801C1.85733 18.1313 4.49354 20.7784 7.74485 20.7784H22.3211C26.0773 20.7784 29.1423 17.7136 29.1423 13.9572C29.1423 10.541 26.6163 7.72929 23.3323 7.23515C23.0126 5.78444 22.3102 4.41124 21.1901 3.29102C19.6195 1.72044 17.5538 0.929688 15.5001 0.929688L15.5 0.929997ZM15.5 2.17121C17.2462 2.17121 18.9937 2.82996 20.322 4.17046C21.3659 5.21429 21.9919 6.51 22.222 7.87217C22.2656 8.13615 22.5078 8.36625 22.7827 8.38804C25.649 8.61812 27.9014 11.0242 27.9014 13.9572C27.9014 17.0439 25.4081 19.5372 22.3214 19.5372H7.74519C5.16348 19.5372 3.09891 17.4725 3.09891 14.8801C3.09891 12.2983 5.16357 10.2338 7.74519 10.2338H8.08548C8.42577 10.2338 8.73332 9.9044 8.71152 9.55324C8.54684 7.63028 9.19469 5.65282 10.6781 4.17071C12.0065 2.8302 13.7537 2.17121 15.5 2.17121ZM9.83165 22.3925C9.63426 22.4034 9.44777 22.5136 9.33757 22.7001L5.61385 29.1484C5.44916 29.4451 5.54846 29.8181 5.84393 29.9827C6.14061 30.1583 6.52447 30.059 6.68917 29.7635L10.4129 23.3261C10.5776 23.0294 10.4783 22.6455 10.1828 22.4688C10.0726 22.4034 9.95274 22.3804 9.83165 22.3925ZM16.0812 22.3925C15.8839 22.4034 15.6853 22.5136 15.5872 22.7001L11.8647 29.1484C11.6891 29.4451 11.7884 29.8181 12.0839 29.9827C12.3805 30.1583 12.7535 30.059 12.9291 29.7635L16.6528 23.3261C16.8175 23.0294 16.7182 22.6455 16.4228 22.4688C16.3126 22.4034 16.2036 22.3804 16.0825 22.3925L16.0812 22.3925ZM22.2763 22.3925C22.0789 22.4034 21.8924 22.5136 21.7822 22.7001L18.0597 29.1484C17.895 29.4451 17.9943 29.8181 18.2898 29.9827C18.5865 30.1583 18.9595 30.059 19.1351 29.7635L22.8479 23.3261C23.0235 23.0294 22.9242 22.6455 22.6287 22.4688C22.5185 22.4034 22.3987 22.3804 22.2776 22.3925L22.2763 22.3925Z" fill="black"/>
</svg>
